# xmcd
#
# Track frame offsets: 
#        150
#        9242
#        22580
#        42730
#        54895
#        67172
#        78281
#        88964
#        98495
#        109117
#        120898
#        130412
#        142815
#        154330
#        162693
#        173812
#        186077
#
# Disc length: 2623 seconds
#
# Revision: 1
# Processed by: cddbd v1.5.2PL0 Copyright (c) Steve Scherf et al.
# Submitted via: ExactAudioCopyFreeDBPlugin 1.0
#
DISCID=d50a3d11
DTITLE=Earl King - Come On:  The Complete Imperial Recordings
DYEAR=2003
DGENRE=Rhythm and Blues
TTITLE0=Love Me Now
TTITLE1=The Things I Used to Do
TTITLE2=Come On (Parts I and II)
TTITLE3=You're More to Me Than Gold
TTITLE4=My Mother's Love
TTITLE5=Nervous Breakdown
TTITLE6=Come Along with Me
TTITLE7=You Better Know
TTITLE8=Mama and Papa
TTITLE9=It's Wrong
TTITLE10=Case of Love
TTITLE11=Trick Bag
TTITLE12=Always a First Time
TTITLE13=Something Funny
TTITLE14=We are Just Friends
TTITLE15=Don't You Love It
TTITLE16=Don't Cry My Friend
EXTD=
EXTT0=
EXTT1=
EXTT2=
EXTT3=
EXTT4=
EXTT5=
EXTT6=
EXTT7=
EXTT8=
EXTT9=
EXTT10=
EXTT11=
EXTT12=
EXTT13=
EXTT14=
EXTT15=
EXTT16=
PLAYORDER=
